<?xml version="1.0" standalone="no"?>
<!DOCTYPE svg PUBLIC "-//W3C//DTD SVG 20010904//EN"
 "http://www.w3.org/TR/2001/REC-SVG-20010904/DTD/svg10.dtd">
<svg version="1.0" xmlns="http://www.w3.org/2000/svg"
 width="1001.000000pt" height="1001.000000pt" viewBox="0 0 1001.000000 1001.000000"
 preserveAspectRatio="xMidYMid meet">
<g transform="translate(0.000000,1001.000000) scale(0.100000,-0.100000)"
fill="#000000" stroke="none">
<path d="M2955 6903 c-729 -728 -1325 -1326 -1325 -1328 0 -4 128 -43 280 -85
63 -18 122 -34 130 -37 8 -3 60 -18 115 -34 55 -15 314 -89 575 -164 646 -186
1971 -565 1990 -570 8 -2 134 -38 280 -80 146 -42 274 -78 285 -81 11 -2 110
-31 220 -63 l200 -58 230 155 c225 152 327 221 630 427 83 56 238 162 345 234
107 73 315 214 463 314 147 100 275 187 285 192 9 6 19 12 22 15 3 3 39 28 80
56 41 28 145 98 230 156 85 57 227 153 315 213 88 59 169 116 179 126 19 18
19 18 -5 27 -26 10 -179 79 -294 132 -38 18 -97 45 -130 60 -33 15 -80 37
-105 48 -25 11 -193 88 -375 170 -181 83 -361 164 -400 182 -38 18 -137 63
-220 100 -82 37 -179 81 -215 98 -36 16 -117 53 -180 82 -63 29 -153 70 -198
91 -46 22 -86 39 -87 39 -2 0 -43 18 -92 41 -48 23 -152 70 -231 105 -79 36
-151 69 -160 74 -9 5 -114 53 -232 106 -118 53 -249 112 -290 131 -41 20 -138
64 -215 98 -77 35 -167 75 -200 91 -33 15 -176 80 -318 145 l-257 117 -1325
-1325z"/>
<path d="M8165 5632 c-77 -52 -250 -169 -385 -261 -222 -150 -414 -280 -702
-476 -330 -224 -869 -589 -1033 -700 -104 -70 -251 -169 -325 -220 -74 -50
-200 -136 -280 -190 -80 -54 -237 -161 -350 -238 -113 -76 -281 -190 -375
-253 -93 -64 -276 -187 -405 -275 -129 -88 -273 -185 -320 -217 -47 -31 -87
-59 -90 -62 -3 -4 -12 -9 -20 -13 -8 -4 -70 -44 -137 -91 -67 -46 -220 -151
-340 -232 -120 -81 -258 -175 -308 -209 -49 -34 -202 -137 -340 -230 -137 -92
-254 -172 -260 -177 -10 -9 -1 -9 98 7 17 3 46 7 62 10 17 2 62 9 100 15 39 6
95 15 125 20 85 15 112 19 155 24 22 3 49 7 60 10 11 2 41 6 66 10 25 4 57 9
70 11 13 2 40 6 59 9 19 3 44 7 55 10 11 2 45 7 75 11 30 4 62 9 70 10 8 1 35
6 60 10 25 4 54 9 65 11 20 4 71 11 140 20 22 3 47 7 55 9 8 2 34 7 57 10 23
3 55 8 70 10 28 4 325 51 373 59 14 3 75 12 135 21 61 9 133 20 160 25 28 5
68 12 90 15 23 3 50 7 60 9 11 2 40 7 65 10 25 3 56 8 70 11 14 3 86 14 160
25 74 12 149 23 165 26 17 3 41 7 55 9 38 6 292 45 319 50 13 2 45 7 70 11 25
3 111 17 191 29 80 13 163 26 185 29 22 4 51 8 65 11 14 2 43 7 65 10 57 8 96
14 128 21 23 5 53 49 218 327 106 177 216 362 245 410 30 49 54 90 54 92 0 2
14 24 30 48 17 25 30 47 30 50 0 3 18 34 39 68 22 35 73 120 113 188 40 68 82
138 93 156 11 19 44 76 74 127 30 51 62 104 72 118 18 27 306 510 325 547 7
12 46 77 87 145 41 68 174 292 297 498 123 206 250 419 282 473 33 54 58 100
56 101 -1 2 -66 -39 -143 -92z"/>
<path d="M1504 5228 c5 -21 9 -57 21 -165 3 -24 7 -62 10 -85 13 -118 16 -147
22 -188 3 -25 7 -61 9 -80 3 -38 32 -291 39 -343 2 -18 7 -59 10 -92 3 -33 8
-73 10 -90 9 -66 15 -123 20 -185 3 -36 8 -72 10 -80 2 -8 6 -44 10 -80 3 -36
8 -81 11 -100 2 -19 7 -56 9 -82 10 -100 15 -139 19 -166 2 -15 7 -58 11 -97
4 -38 8 -77 10 -85 2 -8 6 -44 9 -80 4 -36 8 -78 10 -95 2 -16 7 -57 10 -90 4
-33 8 -71 11 -85 2 -14 7 -52 10 -85 3 -33 8 -73 10 -90 2 -16 7 -57 10 -90 4
-33 8 -73 10 -90 2 -16 9 -75 15 -130 6 -55 13 -111 15 -125 4 -29 12 -103 20
-175 2 -27 9 -88 15 -135 6 -47 13 -114 16 -150 4 -36 8 -67 10 -68 2 -4 348
228 574 383 41 28 154 105 250 170 202 137 422 285 635 430 507 344 1193 809
1465 993 399 270 521 354 517 358 -3 3 -284 86 -337 99 -8 2 -103 29 -210 60
-107 31 -202 58 -210 60 -8 2 -134 38 -280 80 -306 89 -605 174 -685 195 -16
5 -122 35 -235 68 -113 32 -214 62 -225 64 -11 3 -69 20 -130 38 -60 18 -114
33 -120 34 -5 1 -37 10 -70 20 -33 10 -67 20 -75 21 -8 2 -71 20 -140 40 -69
21 -129 38 -135 39 -5 1 -37 10 -70 20 -33 10 -64 19 -70 20 -5 1 -37 10 -70
20 -33 10 -67 20 -75 21 -8 2 -44 13 -80 24 -36 11 -90 27 -120 35 -30 8 -140
39 -245 69 -104 30 -205 58 -223 62 -31 6 -32 5 -28 -17z"/>
</g>
</svg>
