<svg xmlns="http://www.w3.org/2000/svg" viewBox="0 0 770.89 136.7"><defs><style>.cls-1{fill:#fff;}.cls-2{fill:#b3b3b3;}.cls-3{fill:#666;}</style></defs><title>stonecase-logo</title><g id="Layer_2" data-name="Layer 2"><g id="Layer_1-2" data-name="Layer 1"><path class="cls-1" d="M770.89,78.06V62.57h-31.4V47.09h25.94V31.6H739.49V16.8h30.77V1.31H720.6V78.06ZM659.18,74q8.51,5.46,22.41,5.47,14.6,0,22-6.25,6.45-5.52,6.46-17.64,0-12.6-7.67-17.64A32.49,32.49,0,0,0,696.53,35c-1.94-.72-5.37-1.69-10.26-2.92q-7.72-1.89-10.45-3.93a6.92,6.92,0,0,1-2.73-5.88q0-7,8.34-7a14.69,14.69,0,0,1,7.25,1.66,18.38,18.38,0,0,1,5.83,5.64l14.07-9A24.51,24.51,0,0,0,698.13,3.31Q691.56,0,681.65,0q-12.18,0-19.37,5.51-7.46,5.67-7.46,18a25.8,25.8,0,0,0,2,10.6,17.76,17.76,0,0,0,7,7.77A30.53,30.53,0,0,0,670.36,45q3.52,1.22,13.7,3.73A12.65,12.65,0,0,1,690,51.52a6.51,6.51,0,0,1,1.79,4.86q0,7.6-10,7.61-7.24,0-11.39-2.73a15.83,15.83,0,0,1-4.72-5.3L651.15,65.2a24.41,24.41,0,0,0,8,8.76M604.32,49.34l7.82-25.93,7.72,25.93Zm24,28.72H649L621.33,1.31H602.75L575.08,78.06h20.63l4.1-13.54h24.51Zm-75.9-18.27Q550.3,64,543.53,64a10.93,10.93,0,0,1-5.22-1.05,7.17,7.17,0,0,1-3-3.41q-1.57-3.42-1.58-12.71v-14q0-10,2-13.55t7.77-3.51q4.62,0,6.83,2.25t2.78,7.51l17.53-1.26Q570.25,16,567.44,11a18.78,18.78,0,0,0-8.58-7.82Q553.09.38,543.32.37q-11.18,0-17.21,3.57a22,22,0,0,0-10,12.86q-1.57,5-1.57,14.49V48.35q0,11.34,2.57,17.48a20.94,20.94,0,0,0,9,10q6,3.57,17.26,3.57,11.55,0,18.35-3.78a18.79,18.79,0,0,0,9.11-11.49A32.89,32.89,0,0,0,572,56.28l-17.85-2.16a16.84,16.84,0,0,1-1.68,5.67M504,78.06V62.57H472.61V47.09h25.93V31.6H472.61V16.8h30.76V1.31H453.71V78.06Zm-108.08,0V33.23l23.57,44.83h18.58V1.31H419.59V46.14L396,1.31H377.44V78.06ZM342.4,60.5Q340.23,64,333.92,64a13,13,0,0,1-5.62-1,7.06,7.06,0,0,1-3.25-3.39q-1.74-3.36-1.73-12.6V32.39q0-10,2.17-13.52t8.43-3.49a13.13,13.13,0,0,1,5.67,1,7.06,7.06,0,0,1,3.25,3.39q1.74,3.36,1.74,12.6V47q0,10-2.18,13.52m-35.59,5.38A21.34,21.34,0,0,0,316,75.8q6.09,3.57,17.95,3.57t18-3.57a22.08,22.08,0,0,0,10.18-12.86q1.63-5.09,1.63-14.44V30.87q0-11.3-2.65-17.38a21.39,21.39,0,0,0-9.16-9.92Q345.84,0,333.92,0T316,3.57a22.1,22.1,0,0,0-10.19,12.86q-1.62,5.1-1.62,14.44V48.5q0,11.3,2.65,17.38M275.86,78.06V16.8H295.6V1.31H236.91V16.8H256.7V78.06ZM179.27,74q8.5,5.46,22.42,5.47,14.59,0,22-6.25,6.47-5.52,6.46-17.64,0-12.6-7.67-17.64A32.17,32.17,0,0,0,216.62,35q-2.91-1.08-10.26-2.92-7.73-1.89-10.45-3.93a6.92,6.92,0,0,1-2.73-5.88q0-7,8.35-7a14.68,14.68,0,0,1,7.24,1.66,18.38,18.38,0,0,1,5.83,5.64l14.07-9A24.46,24.46,0,0,0,218.22,3.31Q211.67,0,201.74,0q-12.18,0-19.37,5.51-7.45,5.67-7.46,18a25.8,25.8,0,0,0,2,10.6,17.82,17.82,0,0,0,7,7.77A30.76,30.76,0,0,0,190.45,45q3.53,1.22,13.7,3.73a12.65,12.65,0,0,1,5.94,2.75,6.5,6.5,0,0,1,1.78,4.86q0,7.6-10,7.61-7.25,0-11.4-2.73a15.94,15.94,0,0,1-4.72-5.3L171.24,65.2a24.5,24.5,0,0,0,8,8.76"/><path class="cls-1" d="M770.89,136.28v-3.22H755.4V121.22h13.17V118H755.4V106.58h15.44v-3.22H751.62v32.92Zm-45.28-29.74h7.16c2.3,0,4,.5,5.09,1.5a6.1,6.1,0,0,1,1.64,4.69,6.3,6.3,0,0,1-1.6,4.66q-1.49,1.48-4.72,1.48h-7.57Zm7.16,15.51,6.75,14.23h4.24l-7.23-14.64a7.92,7.92,0,0,0,5.15-2.87,10.23,10.23,0,0,0,1.65-6.22q0-4.41-2.34-6.78a7.43,7.43,0,0,0-3.11-1.85,16.79,16.79,0,0,0-4.77-.56H721.83v32.92h3.83V122.05Zm-42.93,2.14a25.28,25.28,0,0,0,.42,5.36,9,9,0,0,0,3.65,5.33q2.52,1.8,7.16,1.8a13.94,13.94,0,0,0,5.92-1.06,9.1,9.1,0,0,0,3.36-2.74,8.79,8.79,0,0,0,1.55-3.35,24.92,24.92,0,0,0,.43-5.34V103.36H708.5v20.83a16.67,16.67,0,0,1-.59,5.07,6.21,6.21,0,0,1-2.11,2.94,7.6,7.6,0,0,1-4.73,1.26,8.63,8.63,0,0,1-3.75-.69,5.9,5.9,0,0,1-2.44-2.21,7,7,0,0,1-1-2.45,22,22,0,0,1-.27-3.92V103.36h-3.82Zm-16.46,12.09v-29.7h9.43v-3.22H660.07v3.22h9.48v29.7Zm-24.68-4.19a7.71,7.71,0,0,1-4.82,1.39c-2.71,0-4.66-.93-5.83-2.78q-1.49-2.35-1.48-7.68v-6.35c0-3.24.39-5.62,1.19-7.14q1.74-3.33,6.1-3.33a6.83,6.83,0,0,1,5.47,2.2,6.06,6.06,0,0,1,1.29,3.18l3.53-.27a8.42,8.42,0,0,0-1.58-4.75q-2.64-3.59-8.78-3.58-8.5,0-10.47,7.43a24.85,24.85,0,0,0-.58,6v6.76a28.2,28.2,0,0,0,.45,5.59,10.18,10.18,0,0,0,1.53,3.73q2.82,4.17,9,4.16,5.81,0,8.67-3a8.08,8.08,0,0,0,2.07-5.18l-3.6-.4a5.78,5.78,0,0,1-2.19,4m-40.61-6.17,6.23-17.7,6.24,17.7ZM624,136.28h4.17l-12-32.92H612.5l-12,32.92h4.16l2.48-7.18h14.43Zm-39.62,0V121.49h13v-3.22h-13V106.58h15.24v-3.22H580.55v32.92Zm-35.8-12.09a25.15,25.15,0,0,0,.43,5.36,8.91,8.91,0,0,0,3.65,5.33c1.68,1.2,4.06,1.8,7.16,1.8a14,14,0,0,0,5.92-1.06,9.15,9.15,0,0,0,3.35-2.74,8.81,8.81,0,0,0,1.56-3.35,25.59,25.59,0,0,0,.43-5.34V103.36h-3.83v20.83a16.67,16.67,0,0,1-.59,5.07,6.3,6.3,0,0,1-2.12,2.94,7.57,7.57,0,0,1-4.72,1.26,8.63,8.63,0,0,1-3.75-.69,5.84,5.84,0,0,1-2.44-2.21,6.82,6.82,0,0,1-1-2.45,22,22,0,0,1-.27-3.92V103.36h-3.83Zm-29.4,12.09V109.94l16.25,26.34h3.68V103.36h-3.72V129.7l-16.26-26.34h-3.69v32.92Zm-28.57-10.36,6.24-17.7,6.23,17.7Zm15.92,10.36h4.16l-12-32.92H495l-12,32.92h4.16l2.48-7.18h14.43Zm-54.26,0V110.86l9.09,18.69h2.46l9.09-18.69v25.42h3.69V103.36h-3.69l-10.33,21.5-10.31-21.5h-3.69v32.92Zm-20.31,0v-3.22H416.47V121.22h13.17V118H416.47V106.58h15.44v-3.22H412.69v32.92Zm-37.6.4c3.89,0,6.81-.91,8.78-2.74a8.42,8.42,0,0,0,2.54-6.53c0-3.12-1-5.39-3.08-6.8a11.09,11.09,0,0,0-2.39-1.26,46.13,46.13,0,0,0-4.45-1.24,15.24,15.24,0,0,1-5.89-2.48,4.87,4.87,0,0,1-1.68-3.94,5.35,5.35,0,0,1,1.46-3.87,6.41,6.41,0,0,1,4.8-1.67q4.68,0,6.69,2.84l2.93-1.89a8.26,8.26,0,0,0-3.76-3.09,14.43,14.43,0,0,0-5.75-1.05c-3.32,0-5.86.85-7.65,2.56a8.44,8.44,0,0,0-2.43,6.37,7.82,7.82,0,0,0,2.79,6.49,17.84,17.84,0,0,0,6.62,2.86c2.43.61,3.9,1,4.4,1.18a7.07,7.07,0,0,1,1.68.91,4.82,4.82,0,0,1,2,4.23,5.38,5.38,0,0,1-1.62,4.06q-1.92,1.84-6,1.84c-4,0-6.71-1.18-8.17-3.56l-3,2q3,4.81,11.1,4.81m-35.48-10.76,6.24-17.7,6.23,17.7Zm15.91,10.36H379l-12-32.92h-3.62l-12,32.92h4.16l2.48-7.18h14.43Zm-33.86-4.19a7.7,7.7,0,0,1-4.81,1.39q-4.08,0-5.84-2.78-1.48-2.35-1.48-7.68v-6.35q0-4.86,1.19-7.14,1.74-3.33,6.1-3.33a6.83,6.83,0,0,1,5.47,2.2,6.06,6.06,0,0,1,1.29,3.18l3.53-.27a8.49,8.49,0,0,0-1.57-4.75Q342.16,103,336,103q-8.52,0-10.47,7.43a24.28,24.28,0,0,0-.59,6v6.76a28.2,28.2,0,0,0,.45,5.59,10.18,10.18,0,0,0,1.53,3.73q2.82,4.17,9,4.16,5.81,0,8.67-3a8,8,0,0,0,2.07-5.18l-3.6-.4a5.78,5.78,0,0,1-2.19,4m-31,4.19v-29.7h9.43v-3.22H296.6v3.22h9.48v29.7Zm-38.32,0V121.22h14.12v15.06h3.83V103.36h-3.83V118H271.59V103.36h-3.83v32.92Zm-15.87-14.21v2.86a14.29,14.29,0,0,1-.34,3.39,7.14,7.14,0,0,1-1.17,2.46c-1.32,1.81-3.4,2.7-6.24,2.7s-4.87-.92-6.1-2.76q-1.58-2.37-1.57-7.68v-6.37q0-4.85,1.24-7.14c1.18-2.22,3.3-3.33,6.34-3.33a7.19,7.19,0,0,1,5.68,2.2,6.17,6.17,0,0,1,1.35,3.18l3.51-.27a8.36,8.36,0,0,0-1.6-4.75q-2.72-3.59-9-3.58-8.68,0-10.73,7.43a23.92,23.92,0,0,0-.59,6.08v6.73a21,21,0,0,0,1.08,7.56,9,9,0,0,0,3.69,4.35,15.27,15.27,0,0,0,13.49,0,9.62,9.62,0,0,0,4.16-5.45,19.71,19.71,0,0,0,.61-5.54V119H248.87v3.08Zm-28.05-18.71h-3.83v32.92h3.83Zm-9.08,32.92v-3.22H203.08v-29.7h-3.83v32.92Zm-40.66,0V121.49h12.95v-3.22H177.93V106.58h15.24v-3.22H174.11v32.92Z"/><polygon class="cls-2" points="0 62.91 77.51 85.08 7.91 132.27 0 62.91"/><polygon class="cls-3" points="19.81 133.05 137.53 53.23 97.18 120.93 19.81 133.05"/><polygon class="cls-1" points="2.43 56.46 56.02 2.86 141.37 41.71 84.85 80.03 2.43 56.46"/></g></g></svg>