<svg xmlns="http://www.w3.org/2000/svg" viewBox="0 0 192.61 43.91"><defs><style>.\39 3ae078b-dc02-4d19-b567-b4425a2f2db4{fill:white}</style></defs><title>logo</title><g id="3e9d285d-4963-4fc3-9150-c8ae82f79aef" data-name="Layer 2"><g id="5cb84425-ce1d-4600-9511-12001551f73e" data-name="Layer 1"><path class="93ae078b-dc02-4d19-b567-b4425a2f2db4" d="M192.61 25.07v-5h-10.08v-5h8.33v-5h-8.33V5.4h9.88v-5h-15.95v24.67zm-35.88-1.31a13.14 13.14 0 0 0 7.2 1.75c3.12 0 5.48-.67 7.06-2 1.39-1.18 2.08-3.06 2.08-5.66s-.82-4.59-2.46-5.67a10.57 10.57 0 0 0-1.88-.93c-.63-.23-1.73-.54-3.3-.94A10.12 10.12 0 0 1 162.07 9a2.23 2.23 0 0 1-.87-1.89c0-1.51.89-2.26 2.68-2.26a4.8 4.8 0 0 1 2.33.53 6 6 0 0 1 1.87 1.81l4.52-2.88a7.94 7.94 0 0 0-3.36-3.29A11.67 11.67 0 0 0 164 0a10 10 0 0 0-6.23 1.77q-2.39 1.82-2.39 5.78A8.27 8.27 0 0 0 156 11a5.72 5.72 0 0 0 2.24 2.49 10 10 0 0 0 2.11 1c.75.26 2.22.65 4.4 1.19a4.1 4.1 0 0 1 1.91.89 2.11 2.11 0 0 1 .57 1.56c0 1.63-1.07 2.44-3.2 2.44a6.65 6.65 0 0 1-3.66-.87 5.07 5.07 0 0 1-1.55-1.7l-4.67 3a7.86 7.86 0 0 0 2.58 2.82m-17.62-7.91l2.51-8.33 2.48 8.33zm7.72 9.22h6.63L144.57.42h-6l-8.88 24.65h6.62l1.32-4.35h7.87zm-24.38-5.93c-.46.9-1.42 1.35-2.87 1.35a3.53 3.53 0 0 1-1.67-.33 2.25 2.25 0 0 1-1-1.1 11 11 0 0 1-.51-4.08v-4.5a9.85 9.85 0 0 1 .64-4.35 2.61 2.61 0 0 1 2.5-1.13 3 3 0 0 1 2.19.72 4.06 4.06 0 0 1 .89 2.41l5.63-.4a9.69 9.69 0 0 0-1-4.27A6.07 6.07 0 0 0 124.51 1a11.73 11.73 0 0 0-5-.89A11 11 0 0 0 114 1.26a7.09 7.09 0 0 0-3.21 4.14 16.32 16.32 0 0 0-.5 4.65v5.48a15 15 0 0 0 .82 5.61 6.71 6.71 0 0 0 2.89 3.21 11 11 0 0 0 5.54 1.14 12.17 12.17 0 0 0 5.9-1.21 6 6 0 0 0 2.92-3.69 10.39 10.39 0 0 0 .37-2.51l-5.73-.7a5.33 5.33 0 0 1-.54 1.82m-15.56 5.87v-5H96.8v-5h8.33v-5H96.8V5.4h9.88v-5h-16v24.67zm-34.72 0v-14.4l7.57 14.4h6V.42h-5.98v14.4L72.18.42h-6v24.65zM55 19.43a3 3 0 0 1-2.73 1.12 4.13 4.13 0 0 1-1.8-.33 2.19 2.19 0 0 1-1-1.08 9.77 9.77 0 0 1-.56-4.05V10.4a9.08 9.08 0 0 1 .7-4.34 2.94 2.94 0 0 1 2.7-1.12 4.22 4.22 0 0 1 1.83.33 2.3 2.3 0 0 1 1 1.09 9.89 9.89 0 0 1 .56 4v4.69a9.15 9.15 0 0 1-.7 4.34m-11.45 1.77a6.82 6.82 0 0 0 2.94 3.19 11.63 11.63 0 0 0 5.76 1.14A11.73 11.73 0 0 0 58 24.35a7.09 7.09 0 0 0 3.27-4.13 16 16 0 0 0 .52-4.64V9.91A14.45 14.45 0 0 0 61 4.33a6.9 6.9 0 0 0-3-3.18A11.61 11.61 0 0 0 52.25 0a11.51 11.51 0 0 0-5.76 1.15 7.06 7.06 0 0 0-3.27 4.13 15.82 15.82 0 0 0-.53 4.63v5.67a14.35 14.35 0 0 0 .86 5.58m-9.94 3.91V5.4H40v-5H21.09v5h6.36v19.67zm-31-1.31a13.14 13.14 0 0 0 7.2 1.75c3.12 0 5.48-.67 7.06-2 1.39-1.18 2.08-3.06 2.08-5.66s-.82-4.59-2.46-5.67a10.57 10.57 0 0 0-1.88-.93c-.63-.23-1.73-.54-3.3-.94A10.12 10.12 0 0 1 7.92 9a2.23 2.23 0 0 1-.87-1.89c0-1.51.89-2.26 2.68-2.26a4.8 4.8 0 0 1 2.33.53 6 6 0 0 1 1.87 1.81l4.52-2.88a7.94 7.94 0 0 0-3.36-3.29A11.67 11.67 0 0 0 9.8 0a10 10 0 0 0-6.23 1.77Q1.19 3.59 1.18 7.55A8.27 8.27 0 0 0 1.82 11a5.72 5.72 0 0 0 2.24 2.49 10 10 0 0 0 2.11 1c.75.26 2.22.65 4.4 1.19a4.1 4.1 0 0 1 1.91.89 2.11 2.11 0 0 1 .57 1.56c0 1.63-1.07 2.44-3.2 2.44a6.65 6.65 0 0 1-3.66-.87A5.07 5.07 0 0 1 4.67 18L0 20.94a7.86 7.86 0 0 0 2.58 2.82m190.03 20.01v-1h-5v-3.8h4.23v-1h-4.23v-3.74h5v-1h-6.18v10.54zm-14.54-9.55h2.3a2.35 2.35 0 0 1 1.63.48 2 2 0 0 1 .53 1.51 2.07 2.07 0 0 1-.51 1.5 2.13 2.13 0 0 1-1.52.47h-2.43zm2.3 5l2.17 4.57h1.36l-2.32-4.7a2.55 2.55 0 0 0 1.65-.92 3.3 3.3 0 0 0 .53-2A3 3 0 0 0 183 34a2.46 2.46 0 0 0-1-.59 5.34 5.34 0 0 0-1.53-.18h-3.63v10.54h1.23V39.2zm-13.79.69a8.12 8.12 0 0 0 .13 1.72 2.87 2.87 0 0 0 1.18 1.72 4 4 0 0 0 2.3.57 4.46 4.46 0 0 0 1.9-.34 2.9 2.9 0 0 0 1.08-.88 2.75 2.75 0 0 0 .49-1.07 7.61 7.61 0 0 0 .14-1.72V33.2h-1.23v6.69a5.2 5.2 0 0 1-.19 1.63 2 2 0 0 1-.68.94 2.4 2.4 0 0 1-1.51.41 2.78 2.78 0 0 1-1.21-.22 2 2 0 0 1-.78-.71 2.21 2.21 0 0 1-.31-.79 8 8 0 0 1-.08-1.26V33.2h-1.23zm-5.29 3.88v-9.56h3v-1H157v1h3v9.54zm-7.92-1.34a2.5 2.5 0 0 1-1.55.45 2 2 0 0 1-1.88-.9 4.88 4.88 0 0 1-.47-2.47v-2a5.12 5.12 0 0 1 .38-2.29 2 2 0 0 1 2-1.07 2.2 2.2 0 0 1 1.76.71 2.06 2.06 0 0 1 .41 1l1.14-.09a2.79 2.79 0 0 0-.51-1.52 3.28 3.28 0 0 0-2.82-1.15 3.07 3.07 0 0 0-3.36 2.38 7.68 7.68 0 0 0-.19 1.95v2.17a9.65 9.65 0 0 0 .14 1.8 3.28 3.28 0 0 0 .49 1.19 3.24 3.24 0 0 0 2.9 1.34 3.65 3.65 0 0 0 2.79-1 2.55 2.55 0 0 0 .66-1.66l-1.15-.13a1.88 1.88 0 0 1-.7 1.28m-13.05-2l2-5.69 2 5.69zm5.11 3.32h1.34L142.9 33.2h-1.16l-3.87 10.57h1.34l.79-2.3h4.64zm-12.73 0V39h4.16v-1h-4.2v-3.77h4.9v-1h-6.13v10.54zm-11.49-3.88a8.12 8.12 0 0 0 .13 1.72 2.89 2.89 0 0 0 1.17 1.72 4 4 0 0 0 2.3.57 4.51 4.51 0 0 0 1.91-.34 2.8 2.8 0 0 0 1.07-.88 2.77 2.77 0 0 0 .5-1.07 8.24 8.24 0 0 0 .14-1.72V33.2h-1.27v6.69a5.2 5.2 0 0 1-.19 1.63 2 2 0 0 1-.68.94 2.42 2.42 0 0 1-1.52.41 2.77 2.77 0 0 1-1.2-.22 2 2 0 0 1-.78-.71 2.21 2.21 0 0 1-.31-.79 6.79 6.79 0 0 1-.09-1.26V33.2h-1.22zm-9.45 3.88v-8.45l5.2 8.46h1.18V33.2H117v8.46l-5.22-8.46h-1.19v10.57zm-9.18-3.32l2-5.69 2 5.69zm5.12 3.32H109l-3.83-10.56H104l-3.87 10.57h1.34l.8-2.3h4.63zm-17.43 0v-8.15l2.92 6H94l2.92-6v8.16h1.19V33.2H96.9l-3.32 6.91-3.31-6.91h-1.19v10.57zm-6.52 0v-1h-5v-3.8H83v-1h-4.23v-3.73h5v-1h-6.22v10.54zm-12.08.13a4 4 0 0 0 2.78-.89 2.73 2.73 0 0 0 .82-2.1 2.45 2.45 0 0 0-1-2.18 3.8 3.8 0 0 0-.77-.4 12.31 12.31 0 0 0-1.43-.4 4.72 4.72 0 0 1-1.89-.8 1.55 1.55 0 0 1-.54-1.26 1.7 1.7 0 0 1 .47-1.25 2.07 2.07 0 0 1 1.54-.53 2.42 2.42 0 0 1 2.14.91l1-.61a2.71 2.71 0 0 0-1.21-1 4.56 4.56 0 0 0-1.85-.34 3.48 3.48 0 0 0-2.46.82 2.74 2.74 0 0 0-.78 2 2.49 2.49 0 0 0 .9 2.08 5.6 5.6 0 0 0 2.13.92c.78.2 1.25.33 1.41.38a2.51 2.51 0 0 1 .54.3 1.52 1.52 0 0 1 .6 1.46 1.73 1.73 0 0 1-.52 1.31 2.68 2.68 0 0 1-1.91.59 2.83 2.83 0 0 1-2.62-1.14l-1 .63c.65 1 1.84 1.54 3.57 1.54m-11.4-3.45l2-5.69 2 5.69zm5.11 3.32h1.34l-3.83-10.6h-1.16l-3.87 10.57h1.34l.79-2.3h4.64zm-10.83-1.37a2.48 2.48 0 0 1-1.55.45 2 2 0 0 1-1.87-.9 4.76 4.76 0 0 1-.48-2.47v-2a5.26 5.26 0 0 1 .39-2.33 2 2 0 0 1 2-1.07 2.2 2.2 0 0 1 1.76.71 2 2 0 0 1 .41 1l1.14-.09a2.79 2.79 0 0 0-.51-1.52 3.28 3.28 0 0 0-2.82-1.15 3.07 3.07 0 0 0-3.36 2.38 7.68 7.68 0 0 0-.19 1.95v2.17a9.65 9.65 0 0 0 .14 1.8 3.12 3.12 0 0 0 .5 1.19 3.23 3.23 0 0 0 2.9 1.34 3.64 3.64 0 0 0 2.78-1 2.61 2.61 0 0 0 .67-1.66l-1.16-.13a1.88 1.88 0 0 1-.7 1.28m-10 1.34v-9.49h3v-1h-7.3v1h3v9.54zm-12.31 0v-4.78h4.54v4.83H38V33.2h-1.23v4.7h-4.54v-4.7H31v10.57zm-5.09-4.56v.92a4.63 4.63 0 0 1-.16 1.14 2.5 2.5 0 0 1-.38.79 2.31 2.31 0 0 1-2 .87 2.18 2.18 0 0 1-2-.89 4.57 4.57 0 0 1-.51-2.47v-2.05a5 5 0 0 1 .4-2.29 2.11 2.11 0 0 1 2-1.07 2.29 2.29 0 0 1 1.82.71 1.9 1.9 0 0 1 .43 1l1.24-.07a2.63 2.63 0 0 0-.51-1.52 3.4 3.4 0 0 0-2.9-1.15 3.16 3.16 0 0 0-3.45 2.38 7.72 7.72 0 0 0-.19 2v2.16A6.79 6.79 0 0 0 21.3 42a2.86 2.86 0 0 0 1.19 1.39 4 4 0 0 0 2.18.51 4.07 4.07 0 0 0 2.15-.51 3 3 0 0 0 1.33-1.75 6.28 6.28 0 0 0 .2-1.77v-1.65h-3.41v1zm-9-6H16.9v10.61h1.22zm-2.95 10.61v-1h-5V33.2H9v10.57zm-13.06 0V39h4.16v-1H2.15v-3.77h4.9v-1H.92v10.54z"/></g></g></svg>
