<svg viewBox="0 0 800 182.38" xmlns="http://www.w3.org/2000/svg"><g fill="#fff"><path d="m800 104.14v-20.66h-41.88v-20.66h34.59v-20.66h-34.59v-19.75h41v-20.66h-66.21v102.39zm-149-5.46q11.34 7.27 29.9 7.28 19.47 0 29.35-8.33 8.61-7.35 8.61-23.53 0-16.81-10.23-23.54a42.89 42.89 0 0 0 -7.8-3.88q-3.9-1.44-13.69-3.89-10.3-2.52-13.94-5.25a9.22 9.22 0 0 1 -3.65-7.85q0-9.37 11.14-9.38a19.68 19.68 0 0 1 9.66 2.21 24.49 24.49 0 0 1 7.75 7.48l18.77-12a32.69 32.69 0 0 0 -13.94-13.59q-8.76-4.41-21.99-4.41-16.24 0-25.84 7.35-9.95 7.56-9.94 24a34.49 34.49 0 0 0 2.65 14.15 23.78 23.78 0 0 0 9.32 10.36 40.45 40.45 0 0 0 8.76 4.21q4.68 1.6 18.27 5c3.69.89 6.33 2.11 7.92 3.68a8.69 8.69 0 0 1 2.38 6.47q0 10.16-13.31 10.16-9.66 0-15.2-3.64a21.12 21.12 0 0 1 -6.3-7.08l-19.4 12.34a32.68 32.68 0 0 0 10.75 11.68m-73.22-32.85 10.44-34.6 10.29 34.6zm32.08 38.31h27.52l-36.91-102.39h-24.79l-36.91 102.39h27.52l5.47-18.07h32.7zm-101.27-24.37c-1.92 3.73-5.88 5.6-11.91 5.6a14.65 14.65 0 0 1 -7-1.4 9.57 9.57 0 0 1 -4-4.55q-2.1-4.56-2.11-17v-18.65q0-13.38 2.67-18.07t10.37-4.7q6.17 0 9.11 3t3.71 10l23.39-1.68q-.5-11-4.24-17.72a25.06 25.06 0 0 0 -11.45-10.4q-7.69-3.7-20.73-3.71-14.91 0-23 4.76a29.39 29.39 0 0 0 -13.3 17.16q-2.1 6.72-2.1 19.33v22.76q0 15.14 3.43 23.32a28 28 0 0 0 12 13.31q8 4.75 23 4.76 15.4 0 24.48-5a25.07 25.07 0 0 0 12.19-15.38 44.43 44.43 0 0 0 1.54-10.43l-23.81-2.88a22.41 22.41 0 0 1 -2.24 7.57m-64.59 24.37v-20.66h-41.94v-20.66h34.6v-20.66h-34.6v-19.75h41v-20.66h-66.21v102.39zm-144.21 0v-59.81l31.45 59.81h24.76v-102.39h-24.67v59.81l-31.51-59.81h-24.73v102.39zm-71.44-23.43q-2.91 4.67-11.31 4.66a17.15 17.15 0 0 1 -7.5-1.37 9.43 9.43 0 0 1 -4.34-4.51q-2.31-4.48-2.31-16.81v-19.47q0-13.38 2.9-18t11.21-4.69a17.48 17.48 0 0 1 7.56 1.36 9.37 9.37 0 0 1 4.34 4.52q2.31 4.49 2.31 16.81v19.47q0 13.38-2.9 18m-47.48 7.18a28.48 28.48 0 0 0 12.21 13.24q8.13 4.75 24 4.76t24-4.76a29.48 29.48 0 0 0 13.6-17.1q2.17-6.8 2.17-19.26v-23.56q0-15.06-3.53-23.18a28.56 28.56 0 0 0 -12.22-13.24q-8.13-4.76-24.06-4.76t-24 4.76a29.48 29.48 0 0 0 -13.5 17.16q-2.17 6.79-2.17 19.26v23.53q0 15.06 3.54 23.18m-41.29 16.25v-81.73h26.33v-20.66h-78.3v20.66h26.39v81.73zm-128.86-5.46q11.34 7.32 29.9 7.32 19.47 0 29.38-8.37 8.63-7.35 8.62-23.53 0-16.81-10.23-23.54a42.65 42.65 0 0 0 -7.81-3.88q-3.88-1.44-13.69-3.89-10.29-2.52-13.93-5.25a9.22 9.22 0 0 1 -3.65-7.85q0-9.37 11.14-9.38a19.68 19.68 0 0 1 9.66 2.21 24.49 24.49 0 0 1 7.74 7.48l18.77-12a32.75 32.75 0 0 0 -13.94-13.59q-8.76-4.41-21.99-4.41-16.24 0-25.84 7.35-9.94 7.56-9.95 24a34.49 34.49 0 0 0 2.66 14.17 23.78 23.78 0 0 0 9.32 10.36 40.6 40.6 0 0 0 8.75 4.21q4.7 1.6 18.28 5c3.69.89 6.33 2.11 7.92 3.68a8.69 8.69 0 0 1 2.38 6.47q0 10.16-13.31 10.16-9.66 0-15.2-3.64a21.12 21.12 0 0 1 -6.3-7.08l-19.4 12.32a32.59 32.59 0 0 0 10.72 11.7"/><path d="m800 181.81v-4.29h-20.66v-15.8h17.56v-4.3h-17.56v-15.23h20.6v-4.29h-25.65v43.91zm-60.4-39.68h9.55q4.59 0 6.78 2c1.47 1.34 2.2 3.43 2.2 6.25s-.71 4.8-2.13 6.22-3.43 2-6.31 2h-10.09zm9.55 20.7 9 19h5.65l-9.64-19.53a10.49 10.49 0 0 0 6.86-3.83q2.21-2.94 2.21-8.3 0-5.88-3.13-9a9.87 9.87 0 0 0 -4.14-2.46 22.25 22.25 0 0 0 -6.37-.75h-15.04v43.91h5.11v-19zm-57.28 2.85a33.09 33.09 0 0 0 .57 7.15 12 12 0 0 0 4.86 7.17c2.25 1.6 5.43 2.4 9.56 2.4a18.78 18.78 0 0 0 7.9-1.41 12.34 12.34 0 0 0 4.47-3.67 11.55 11.55 0 0 0 2.07-4.46 33.05 33.05 0 0 0 .58-7.13v-27.83h-5.11v27.78a22.29 22.29 0 0 1 -.78 6.77 8.42 8.42 0 0 1 -2.83 3.92q-2.16 1.68-6.3 1.68a11.73 11.73 0 0 1 -5-.91 7.93 7.93 0 0 1 -3.26-3 9.12 9.12 0 0 1 -1.27-3.27 29.21 29.21 0 0 1 -.36-5.23v-27.74h-5.1zm-22 16.13v-39.62h12.63v-4.29h-30.34v4.29h12.64v39.62zm-32.87-5.59a10.23 10.23 0 0 1 -6.43 1.86q-5.43 0-7.78-3.72-2-3.12-2-10.24v-8.47q0-6.5 1.59-9.52 2.31-4.45 8.14-4.45 4.79 0 7.3 2.94a8.14 8.14 0 0 1 1.71 4.24l4.72-.36a11.37 11.37 0 0 0 -2.1-6.34q-3.54-4.77-11.72-4.78-11.34 0-14 9.92a32.38 32.38 0 0 0 -.79 8.08v9a36.81 36.81 0 0 0 .61 7.46 13.76 13.76 0 0 0 2 5q3.75 5.55 12 5.55 7.75 0 11.57-4a10.68 10.68 0 0 0 2.76-6.9l-4.81-.54a7.71 7.71 0 0 1 -2.91 5.31m-54.05-8.26 8.32-23.61 8.32 23.61zm21.19 13.81h5.56l-16.03-43.91h-4.84l-16.07 43.91h5.56l3.3-9.58h19.26zm-52.86 0v-19.73h17.27v-4.3h-17.23v-15.59h20.33v-4.29h-25.44v43.91zm-47.76-16.13a33.09 33.09 0 0 0 .57 7.15 12 12 0 0 0 4.87 7.12q3.36 2.4 9.55 2.4a18.75 18.75 0 0 0 7.9-1.41 12.34 12.34 0 0 0 4.47-3.67 11.41 11.41 0 0 0 2.07-4.46 33.05 33.05 0 0 0 .58-7.13v-27.78h-5.11v27.78a22.29 22.29 0 0 1 -.78 6.77 8.35 8.35 0 0 1 -2.83 3.92q-2.16 1.68-6.3 1.68a11.73 11.73 0 0 1 -5-.91 7.93 7.93 0 0 1 -3.26-3 9.5 9.5 0 0 1 -1.27-3.27 29.21 29.21 0 0 1 -.36-5.23v-27.74h-5.1zm-39.23 16.13v-35.14l21.69 35.14h4.9v-43.91h-5v35.1l-21.61-35.1h-4.92v43.91zm-38.08-13.81 8.33-23.61 8.32 23.61zm21.24 13.82h5.56l-16.07-43.92h-4.8l-16.07 43.91h5.56l3.3-9.58h19.21zm-72.39 0v-33.92l12.14 24.93h3.27l12.14-24.93v33.91h4.92v-43.91h-4.92l-13.79 28.68-13.76-28.68h-4.92v43.91zm-27.09 0v-4.29h-20.67v-15.8h17.58v-4.3h-17.58v-15.24h20.61v-4.29h-25.65v43.91zm-50.16.54q7.77 0 11.71-3.66 3.4-3.12 3.4-8.71 0-6.25-4.12-9.07a15 15 0 0 0 -3.18-1.69q-1.53-.57-6-1.65c-3.75-.94-6.36-2-7.85-3.31a6.49 6.49 0 0 1 -2.24-5.25 7.13 7.13 0 0 1 1.95-5.17c1.44-1.48 3.58-2.22 6.4-2.22q6.24 0 8.92 3.78l3.91-2.52a11 11 0 0 0 -5-4.11 19 19 0 0 0 -7.67-1.41q-6.65 0-10.21 3.42a11.23 11.23 0 0 0 -3.25 8.5q0 5.67 3.73 8.65 2.91 2.31 8.83 3.81c3.24.83 5.2 1.35 5.87 1.58a9.18 9.18 0 0 1 2.24 1.22 6.41 6.41 0 0 1 2.67 5.64 7.15 7.15 0 0 1 -2.16 5.41c-1.7 1.64-4.35 2.46-7.93 2.46q-8 0-10.9-4.74l-4 2.61q4 6.44 14.81 6.43m-47.27-14.36 8.32-23.61 8.35 23.61zm21.24 13.82h5.55l-16.07-43.92h-4.83l-16.07 43.91h5.56l3.3-9.58h19.25zm-45.18-5.59a10.23 10.23 0 0 1 -6.43 1.86q-5.43 0-7.78-3.72-2-3.12-2-10.24v-8.47q0-6.5 1.59-9.52 2.33-4.45 8.14-4.45 4.78 0 7.3 2.94a8.06 8.06 0 0 1 1.71 4.24l4.72-.36a11.37 11.37 0 0 0 -2.1-6.34q-3.54-4.77-11.72-4.78-11.34 0-14 9.92a32.38 32.38 0 0 0 -.79 8.08v9a37.55 37.55 0 0 0 .61 7.46 13.76 13.76 0 0 0 2 5q3.75 5.55 12 5.55 7.74 0 11.56-4a10.68 10.68 0 0 0 2.76-6.9l-4.81-.54a7.67 7.67 0 0 1 -2.91 5.31m-41.24 5.54v-39.62h12.59v-4.29h-30.34v4.29h12.65v39.62zm-51.12 0v-20.09h18.83v20.09h5.11v-43.91h-5.11v19.52h-18.83v-19.52h-5.1v43.91zm-21.17-18.95v3.81a18.65 18.65 0 0 1 -.46 4.52 9.65 9.65 0 0 1 -1.56 3.29q-2.64 3.6-8.32 3.6c-3.78 0-6.5-1.23-8.14-3.69q-2.1-3.15-2.1-10.24v-8.5q0-6.47 1.65-9.52 2.37-4.45 8.47-4.45c3.32 0 5.85 1 7.57 2.94a8.14 8.14 0 0 1 1.8 4.24l4.69-.36a11.24 11.24 0 0 0 -2.13-6.34q-3.65-4.77-12.05-4.78-11.59 0-14.32 9.92a32.14 32.14 0 0 0 -.78 8.11v9c0 4.32.47 7.69 1.44 10.09a12 12 0 0 0 4.92 5.8c2.22 1.4 5.25 2.1 9.07 2.1a17 17 0 0 0 8.92-2.1 12.87 12.87 0 0 0 5.56-7.27 26.57 26.57 0 0 0 .81-7.39v-6.88h-14.18v4.12zm-37.43-25h-5.11v43.91h5.11zm-12.1 43.91v-4.29h-20.7v-39.58h-5.11v43.91zm-54.25 0v-19.69h17.27v-4.3h-17.27v-15.59h20.33v-4.29h-25.44v43.91z"/></g></svg>