<svg xmlns="http://www.w3.org/2000/svg" viewBox="0 0 770.54 136.7"><defs><style>.cls-1{fill:#fff;}.cls-2{fill:#999;}.cls-3{fill:#666;}.cls-4{fill:#ccc;}</style></defs><title>Asset 17</title><g id="Layer_2" data-name="Layer 2"><g id="Layer_1-2" data-name="Layer 1"><path class="cls-1" d="M770.54,78.06V62.57H739.15V47.09h25.93V31.6H739.15V16.8h30.76V1.31H720.25V78.06ZM658.83,74q8.5,5.46,22.42,5.47,14.58,0,22-6.25,6.46-5.52,6.46-17.64,0-12.6-7.67-17.64A32.49,32.49,0,0,0,696.18,35q-2.91-1.08-10.26-2.92-7.73-1.89-10.45-3.93a6.92,6.92,0,0,1-2.73-5.88q0-7,8.35-7a14.68,14.68,0,0,1,7.24,1.66,18.38,18.38,0,0,1,5.83,5.64l14.07-9A24.51,24.51,0,0,0,697.78,3.31Q691.22,0,681.3,0q-12.18,0-19.37,5.51-7.45,5.67-7.46,18a25.8,25.8,0,0,0,2,10.6,17.76,17.76,0,0,0,7,7.77A30.76,30.76,0,0,0,670,45q3.53,1.22,13.7,3.73a12.56,12.56,0,0,1,5.93,2.75,6.51,6.51,0,0,1,1.79,4.86q0,7.6-10,7.61-7.23,0-11.39-2.73a15.83,15.83,0,0,1-4.72-5.3L650.8,65.2a24.5,24.5,0,0,0,8,8.76M604,49.34l7.82-25.93,7.72,25.93Zm24,28.72h20.64L621,1.31H602.4L574.73,78.06h20.63l4.1-13.54H624Zm-75.9-18.27q-2.16,4.2-8.92,4.2A11,11,0,0,1,538,62.94a7.22,7.22,0,0,1-3-3.41q-1.58-3.42-1.57-12.71v-14q0-10,2-13.55t7.77-3.51q4.62,0,6.83,2.25c1.47,1.51,2.39,4,2.78,7.51l17.53-1.26C570,18.76,569,14.33,567.09,11a18.78,18.78,0,0,0-8.58-7.82Q552.73.38,543,.37q-11.18,0-17.21,3.57a22,22,0,0,0-10,12.86q-1.57,5-1.57,14.49V48.35q0,11.34,2.57,17.48a21,21,0,0,0,9,10q6,3.57,17.27,3.57,11.55,0,18.34-3.78a18.76,18.76,0,0,0,9.11-11.49,32.89,32.89,0,0,0,1.16-7.82l-17.85-2.16a16.84,16.84,0,0,1-1.68,5.67M503.66,78.06V62.57h-31.4V47.09H498.2V31.6H472.26V16.8H503V1.31H453.36V78.06Zm-108.09,0V33.23l23.57,44.83h18.58V1.31H419.24V46.14L395.62,1.31H377.09V78.06ZM342.05,60.5Q339.88,64,333.57,64A13,13,0,0,1,328,63a7.1,7.1,0,0,1-3.25-3.39Q323,56.22,323,47V32.39q0-10,2.18-13.52t8.42-3.49a13.13,13.13,0,0,1,5.67,1,7.12,7.12,0,0,1,3.26,3.39q1.72,3.36,1.73,12.6V47q0,10-2.18,13.52m-35.59,5.38a21.39,21.39,0,0,0,9.16,9.92q6.09,3.57,17.95,3.57t18-3.57a22.08,22.08,0,0,0,10.18-12.86q1.64-5.09,1.63-14.44V30.87q0-11.3-2.65-17.38a21.39,21.39,0,0,0-9.16-9.92Q345.49,0,333.57,0T315.62,3.57a22.08,22.08,0,0,0-10.18,12.86q-1.63,5.1-1.63,14.44V48.5q0,11.3,2.65,17.38M275.51,78.06V16.8h19.74V1.31H236.56V16.8h19.79V78.06ZM178.92,74q8.51,5.46,22.42,5.47,14.6,0,22-6.25,6.46-5.52,6.46-17.64,0-12.6-7.66-17.64A32.24,32.24,0,0,0,216.27,35q-2.91-1.08-10.26-2.92-7.71-1.89-10.45-3.93a6.94,6.94,0,0,1-2.73-5.88q0-7,8.35-7a14.65,14.65,0,0,1,7.24,1.66,18.38,18.38,0,0,1,5.83,5.64l14.07-9A24.46,24.46,0,0,0,217.87,3.31Q211.32,0,201.39,0,189.21,0,182,5.51q-7.46,5.67-7.46,18a25.8,25.8,0,0,0,2,10.6,17.82,17.82,0,0,0,7,7.77A30.61,30.61,0,0,0,190.11,45q3.51,1.22,13.69,3.73a12.65,12.65,0,0,1,5.94,2.75,6.5,6.5,0,0,1,1.78,4.86q0,7.6-10,7.61-7.25,0-11.39-2.73a15.85,15.85,0,0,1-4.73-5.3L170.89,65.2a24.5,24.5,0,0,0,8,8.76"/><path class="cls-1" d="M770.54,136.28v-3.22H755.05V121.22h13.17V118H755.05V106.58h15.44v-3.22H751.27v32.92Zm-45.28-29.74h7.16c2.3,0,4,.5,5.09,1.5a6.06,6.06,0,0,1,1.64,4.69,6.34,6.34,0,0,1-1.59,4.66q-1.48,1.48-4.73,1.48h-7.57Zm7.16,15.51,6.76,14.23h4.23l-7.23-14.64a7.92,7.92,0,0,0,5.15-2.87,10.23,10.23,0,0,0,1.65-6.22q0-4.41-2.34-6.78a7.37,7.37,0,0,0-3.11-1.85,16.74,16.74,0,0,0-4.77-.56H721.48v32.92h3.83V122.05Zm-42.93,2.14a25.28,25.28,0,0,0,.42,5.36,9,9,0,0,0,3.65,5.33q2.52,1.8,7.16,1.8a14,14,0,0,0,5.93-1.06,9.15,9.15,0,0,0,3.35-2.74,8.64,8.64,0,0,0,1.55-3.35,24.92,24.92,0,0,0,.43-5.34V103.36h-3.83v20.83a16.72,16.72,0,0,1-.58,5.07,6.3,6.3,0,0,1-2.12,2.94,7.6,7.6,0,0,1-4.73,1.26,8.56,8.56,0,0,1-3.74-.69,5.86,5.86,0,0,1-2.45-2.21,7.2,7.2,0,0,1-.95-2.45,22,22,0,0,1-.27-3.92V103.36h-3.82ZM673,136.28v-29.7h9.43v-3.22H659.73v3.22h9.47v29.7Zm-24.67-4.19a7.75,7.75,0,0,1-4.82,1.39q-4.08,0-5.83-2.78-1.49-2.35-1.49-7.68v-6.35q0-4.86,1.19-7.14,1.74-3.33,6.1-3.33a6.83,6.83,0,0,1,5.47,2.2,6.06,6.06,0,0,1,1.29,3.18l3.53-.27a8.49,8.49,0,0,0-1.57-4.75q-2.65-3.59-8.78-3.58-8.52,0-10.47,7.43a24.28,24.28,0,0,0-.59,6v6.76a28.2,28.2,0,0,0,.45,5.59,10.18,10.18,0,0,0,1.53,3.73q2.82,4.17,9,4.16,5.8,0,8.67-3a8,8,0,0,0,2.07-5.18l-3.6-.4a5.8,5.8,0,0,1-2.18,4m-40.62-6.17,6.24-17.7,6.23,17.7Zm15.92,10.36h4.16l-12-32.92h-3.63l-12,32.92h4.16l2.48-7.18h14.43Zm-39.63,0V121.49h13v-3.22H584V106.58h15.24v-3.22H580.2v32.92Zm-35.8-12.09a25.15,25.15,0,0,0,.43,5.36,9,9,0,0,0,3.65,5.33c1.68,1.2,4.06,1.8,7.16,1.8a13.94,13.94,0,0,0,5.92-1.06,9.15,9.15,0,0,0,3.35-2.74,8.81,8.81,0,0,0,1.56-3.35,25.59,25.59,0,0,0,.43-5.34V103.36H566.9v20.83a16.67,16.67,0,0,1-.59,5.07,6.28,6.28,0,0,1-2.11,2.94,7.6,7.6,0,0,1-4.73,1.26,8.63,8.63,0,0,1-3.75-.69,5.84,5.84,0,0,1-2.44-2.21,7,7,0,0,1-.95-2.45,22,22,0,0,1-.27-3.92V103.36h-3.83Zm-29.4,12.09V109.94l16.26,26.34h3.67V103.36H535V129.7l-16.25-26.34h-3.7v32.92Zm-28.57-10.36,6.24-17.7,6.23,17.7Zm15.92,10.36h4.16l-12-32.92h-3.63l-12,32.92h4.16l2.48-7.18H503.7Zm-54.26,0V110.86L461,129.55h2.46l9.09-18.69v25.42h3.7V103.36h-3.7l-10.33,21.5-10.31-21.5h-3.69v32.92Zm-20.31,0v-3.22H416.12V121.22h13.17V118H416.12V106.58h15.44v-3.22H412.34v32.92Zm-37.6.4c3.89,0,6.81-.91,8.78-2.74a8.42,8.42,0,0,0,2.55-6.53q0-4.68-3.09-6.8a11,11,0,0,0-2.38-1.26c-.77-.29-2.26-.7-4.46-1.24a15.24,15.24,0,0,1-5.89-2.48,4.87,4.87,0,0,1-1.68-3.94,5.31,5.31,0,0,1,1.47-3.87,6.4,6.4,0,0,1,4.79-1.67q4.68,0,6.69,2.84l2.93-1.89A8.23,8.23,0,0,0,400,104a14.5,14.5,0,0,0-5.75-1.05q-5,0-7.66,2.56a8.44,8.44,0,0,0-2.43,6.37,7.82,7.82,0,0,0,2.79,6.49,17.84,17.84,0,0,0,6.62,2.86c2.43.61,3.9,1,4.4,1.18a7.07,7.07,0,0,1,1.68.91,4.82,4.82,0,0,1,2,4.23,5.38,5.38,0,0,1-1.62,4.06c-1.27,1.23-3.26,1.84-5.94,1.84-4,0-6.72-1.18-8.18-3.56l-3,2q3,4.81,11.1,4.81m-35.48-10.76,6.24-17.7,6.23,17.7Zm15.92,10.36h4.16l-12-32.92h-3.63l-12,32.92h4.16l2.48-7.18H372Zm-33.86-4.19a7.75,7.75,0,0,1-4.82,1.39q-4.08,0-5.83-2.78-1.49-2.35-1.49-7.68v-6.35q0-4.86,1.19-7.14c1.16-2.22,3.19-3.33,6.11-3.33a6.86,6.86,0,0,1,5.47,2.2,6.13,6.13,0,0,1,1.28,3.18l3.53-.27a8.49,8.49,0,0,0-1.57-4.75q-2.65-3.59-8.78-3.58-8.52,0-10.47,7.43a24.28,24.28,0,0,0-.59,6v6.76a28.2,28.2,0,0,0,.45,5.59,10.18,10.18,0,0,0,1.53,3.73q2.82,4.17,9,4.16,5.82,0,8.67-3a8,8,0,0,0,2.07-5.18l-3.6-.4a5.8,5.8,0,0,1-2.18,4m-31,4.19v-29.7H319v-3.22H296.25v3.22h9.48v29.7Zm-38.32,0V121.22h14.12v15.06h3.83V103.36h-3.83V118H271.24V103.36h-3.82v32.92Zm-15.87-14.21v2.86a13.78,13.78,0,0,1-.34,3.39,7.14,7.14,0,0,1-1.17,2.46c-1.32,1.81-3.4,2.7-6.24,2.7s-4.87-.92-6.1-2.76q-1.58-2.37-1.57-7.68v-6.37q0-4.85,1.24-7.14c1.18-2.22,3.3-3.33,6.34-3.33a7.18,7.18,0,0,1,5.68,2.2,6.09,6.09,0,0,1,1.35,3.18l3.51-.27a8.36,8.36,0,0,0-1.6-4.75q-2.72-3.59-9-3.58-8.69,0-10.73,7.43a23.92,23.92,0,0,0-.59,6.08v6.73a21,21,0,0,0,1.08,7.56,9,9,0,0,0,3.69,4.35,15.27,15.27,0,0,0,13.49,0,9.62,9.62,0,0,0,4.16-5.45,19.71,19.71,0,0,0,.61-5.54V119H248.52v3.08Zm-28.05-18.71h-3.83v32.92h3.83Zm-9.07,32.92v-3.22H202.73v-29.7H198.9v32.92Zm-40.67,0V121.49h12.95v-3.22H177.58V106.58h15.25v-3.22H173.76v32.92Z"/><polygon class="cls-2" points="0 63.27 77.98 85.57 7.96 133.05 0 63.27"/><polygon class="cls-3" points="19.93 133.84 138.36 53.54 97.77 121.64 19.93 133.84"/><polygon class="cls-4" points="2.45 56.78 56.36 2.86 142.22 41.94 85.36 80.5 2.45 56.78"/></g></g></svg>