<svg height="171.858" viewBox="0 0 944.669 171.858" width="944.669" xmlns="http://www.w3.org/2000/svg"><path d="m1020.781 279.084v-18.984h-38.489v-18.985h31.794v-18.985h-31.794v-18.149h37.714v-18.989h-60.882v94.092zm-136.955-5.019q10.425 6.694 27.482 6.7 17.889 0 26.966-7.66 7.917-6.756 7.916-21.623 0-15.445-9.4-21.626a39.53 39.53 0 0 0 -7.176-3.573q-3.573-1.317-12.58-3.573-9.465-2.312-12.81-4.824a8.476 8.476 0 0 1 -3.347-7.21q0-8.621 10.233-8.621a18.108 18.108 0 0 1 8.881 2.027 22.617 22.617 0 0 1 7.145 6.916l17.248-11a30.066 30.066 0 0 0 -12.809-12.549q-8.044-4.053-20.205-4.053-14.932 0-23.748 6.755-9.138 6.951-9.137 22.076a31.68 31.68 0 0 0 2.442 13 21.819 21.819 0 0 0 8.561 9.522 37.37 37.37 0 0 0 8.046 3.863q4.31 1.482 16.794 4.569 5.085 1.225 7.275 3.381a7.973 7.973 0 0 1 2.187 5.951q0 9.331-12.229 9.331-8.879 0-13.965-3.347a19.356 19.356 0 0 1 -5.79-6.5l-17.828 11.328a29.976 29.976 0 0 0 9.847 10.748m-67.255-30.182 9.591-31.795 9.462 31.795zm29.476 35.2h25.295l-33.917-94.092h-22.78l-33.917 94.092h25.291l5.018-16.6h30.057zm-93.061-22.4q-2.639 5.153-10.938 5.148a13.37 13.37 0 0 1 -6.4-1.286 8.789 8.789 0 0 1 -3.7-4.183q-1.929-4.185-1.932-15.576v-17.187q0-12.292 2.447-16.6t9.527-4.313q5.662 0 8.366 2.767t3.408 9.206l21.5-1.546q-.452-10.105-3.894-16.282a23.065 23.065 0 0 0 -10.523-9.588q-7.076-3.411-19.049-3.412-13.706 0-21.107 4.374a27.013 27.013 0 0 0 -12.229 15.771q-1.929 6.177-1.932 17.76v20.915q0 13.906 3.153 21.431a25.744 25.744 0 0 0 11.008 12.229q7.334 4.375 21.172 4.378 14.158 0 22.492-4.634a23.046 23.046 0 0 0 11.169-14.1 40.555 40.555 0 0 0 1.416-9.587l-21.882-2.642a20.623 20.623 0 0 1 -2.061 6.951m-59.4 22.4v-18.985h-38.496v-18.985h31.793v-18.985h-31.793v-18.149h37.714v-18.989h-60.884v94.092zm-132.515 0v-54.963l28.9 54.962h22.769v-94.092h-22.65v54.962l-28.961-54.962h-22.72v94.092zm-65.621-21.528q-2.674 4.283-10.393 4.279a15.828 15.828 0 0 1 -6.89-1.255 8.64 8.64 0 0 1 -3.988-4.149q-2.124-4.116-2.122-15.446v-17.894q0-12.286 2.668-16.569t10.333-4.282a16.078 16.078 0 0 1 6.95 1.255 8.641 8.641 0 0 1 3.988 4.154q2.124 4.116 2.126 15.442v17.893q0 12.292-2.671 16.572m-43.633 6.6a26.207 26.207 0 0 0 11.229 12.164q7.464 4.375 22.011 4.378 14.605 0 22.073-4.378a27.085 27.085 0 0 0 12.484-15.767q2-6.24 2-17.7v-21.624q0-13.838-3.248-21.306a26.249 26.249 0 0 0 -11.237-12.164q-7.466-4.375-22.073-4.374-14.548 0-22.011 4.374a27.1 27.1 0 0 0 -12.485 15.77q-2 6.241-2 17.7v21.621q0 13.838 3.253 21.3m-37.939 14.931v-75.1h24.2v-18.99h-71.952v18.989h24.267v75.1zm-118.42-5.019q10.427 6.694 27.482 6.7 17.891 0 26.965-7.66 7.917-6.756 7.916-21.623 0-15.445-9.4-21.626a39.449 39.449 0 0 0 -7.176-3.573q-3.573-1.317-12.58-3.573-9.465-2.312-12.809-4.824a8.473 8.473 0 0 1 -3.348-7.21q0-8.621 10.233-8.621a18.107 18.107 0 0 1 8.881 2.027 22.616 22.616 0 0 1 7.145 6.916l17.248-11a30.065 30.065 0 0 0 -12.809-12.549q-8.044-4.053-20.205-4.053-14.933 0-23.749 6.755-9.138 6.951-9.141 22.076a31.679 31.679 0 0 0 2.446 13 21.819 21.819 0 0 0 8.561 9.522 37.372 37.372 0 0 0 8.046 3.863q4.311 1.482 16.794 4.569 5.085 1.225 7.275 3.381a7.973 7.973 0 0 1 2.187 5.951q0 9.331-12.229 9.331-8.879 0-13.965-3.347a19.37 19.37 0 0 1 -5.79-6.5l-17.828 11.328a29.977 29.977 0 0 0 9.847 10.748" fill="#fff" transform="translate(-76.111 -179.125)"/><path d="m1020.132 327.193v-3.946h-18.989v-14.52h16.145v-3.946h-16.145v-14h18.935v-3.946h-23.572v40.354zm-55.508-36.462h8.776q4.226 0 6.237 1.848t2.015 5.745a7.751 7.751 0 0 1 -1.958 5.713q-1.821 1.821-5.8 1.821h-9.275zm8.778 19.02 8.279 17.442h5.191l-8.859-17.942a9.7 9.7 0 0 0 6.305-3.52q2.027-2.713 2.03-7.629 0-5.41-2.87-8.31a9.111 9.111 0 0 0 -3.809-2.263 20.482 20.482 0 0 0 -5.855-.69h-13.827v40.354h4.694v-17.442zm-52.638 2.621a30.458 30.458 0 0 0 .524 6.569 11.008 11.008 0 0 0 4.472 6.542q3.093 2.2 8.779 2.207a17.19 17.19 0 0 0 7.259-1.3 11.287 11.287 0 0 0 4.111-3.367 10.686 10.686 0 0 0 1.905-4.1 30.989 30.989 0 0 0 .526-6.554v-25.53h-4.694v25.534a20.514 20.514 0 0 1 -.717 6.222 7.7 7.7 0 0 1 -2.6 3.6 9.3 9.3 0 0 1 -5.794 1.546 10.744 10.744 0 0 1 -4.6-.843 7.26 7.26 0 0 1 -3-2.718 8.513 8.513 0 0 1 -1.161-3.007 26.744 26.744 0 0 1 -.332-4.8v-25.534h-4.69zm-20.174 14.821v-36.408h11.565v-3.946h-27.878v3.946h11.617v36.408zm-30.252-5.133a9.469 9.469 0 0 1 -5.908 1.71q-5 0-7.149-3.421-1.821-2.874-1.821-9.412v-7.786q0-5.96 1.461-8.749 2.124-4.088 7.481-4.087a8.357 8.357 0 0 1 6.706 2.706 7.452 7.452 0 0 1 1.573 3.894l4.335-.332a10.443 10.443 0 0 0 -1.935-5.825q-3.253-4.386-10.764-4.389-10.431 0-12.835 9.11a29.836 29.836 0 0 0 -.718 7.423v8.283a34.445 34.445 0 0 0 .554 6.859 12.488 12.488 0 0 0 1.877 4.568q3.448 5.107 11.069 5.1 7.117 0 10.626-3.7a9.811 9.811 0 0 0 2.538-6.347l-4.416-.5a7.1 7.1 0 0 1 -2.675 4.886m-49.793-7.566 7.644-21.694 7.645 21.694zm19.512 12.7h5.106l-14.762-40.346h-4.443l-14.767 40.354h5.106l3.034-8.8h17.69zm-48.577 0v-18.126h15.87v-3.946h-15.87v-14.328h18.684v-3.946h-23.379v40.354zm-43.889-14.813a30.464 30.464 0 0 0 .523 6.569 11.009 11.009 0 0 0 4.472 6.542q3.091 2.2 8.779 2.207a17.167 17.167 0 0 0 7.259-1.3 11.3 11.3 0 0 0 4.111-3.367 10.649 10.649 0 0 0 1.905-4.1 30.99 30.99 0 0 0 .526-6.554v-25.53h-4.694v25.534a20.517 20.517 0 0 1 -.717 6.222 7.71 7.71 0 0 1 -2.6 3.6 9.3 9.3 0 0 1 -5.794 1.546 10.754 10.754 0 0 1 -4.6-.843 7.268 7.268 0 0 1 -3-2.718 8.537 8.537 0 0 1 -1.16-3.007 26.636 26.636 0 0 1 -.332-4.8v-25.534h-4.69zm-36.05 14.821v-32.293l19.932 32.294h4.5v-40.355h-4.557v32.294l-19.927-32.294h-4.526v40.354zm-35.026-12.7 7.649-21.694 7.645 21.694zm19.515 12.7h5.107l-14.767-40.354h-4.443l-14.767 40.354h5.106l3.034-8.8h17.695zm-66.518 0v-31.164l11.148 22.912h3.012l11.148-22.912v31.164h4.528v-40.354h-4.528l-12.668 26.361-12.641-26.361h-4.528v40.354zm-24.9 0v-3.946h-18.991v-14.52h16.149v-3.946h-16.149v-14h18.935v-3.946h-23.572v40.354zm-46.1.5q7.144 0 10.763-3.367a10.333 10.333 0 0 0 3.119-8q0-5.741-3.779-8.335a14.04 14.04 0 0 0 -2.928-1.546q-1.409-.526-5.465-1.519-5.164-1.3-7.217-3.038a5.976 5.976 0 0 1 -2.057-4.828 6.542 6.542 0 0 1 1.794-4.748q1.986-2.043 5.881-2.042 5.738 0 8.2 3.478l3.591-2.317a10.051 10.051 0 0 0 -4.6-3.782 17.606 17.606 0 0 0 -7.051-1.3q-6.1 0-9.385 3.145a10.339 10.339 0 0 0 -2.98 7.813q0 5.215 3.423 7.951a21.819 21.819 0 0 0 8.115 3.5q4.471 1.133 5.4 1.45a8.272 8.272 0 0 1 2.054 1.118 5.9 5.9 0 0 1 2.458 5.187 6.58 6.58 0 0 1 -1.989 4.97q-2.341 2.26-7.286 2.263-7.339 0-10.02-4.363l-3.645 2.405q3.7 5.9 13.611 5.9m-43.5-13.2 7.649-21.694 7.645 21.694zm19.515 12.7h5.107l-14.767-40.354h-4.443l-14.767 40.354h5.106l3.034-8.8h17.695zm-41.511-5.133a9.473 9.473 0 0 1 -5.909 1.71q-4.991 0-7.149-3.421-1.821-2.874-1.821-9.412v-7.786q0-5.96 1.463-8.749 2.124-4.088 7.481-4.087a8.353 8.353 0 0 1 6.706 2.706 7.411 7.411 0 0 1 1.572 3.894l4.336-.332a10.471 10.471 0 0 0 -1.931-5.825q-3.259-4.386-10.768-4.389-10.431 0-12.832 9.11a29.7 29.7 0 0 0 -.721 7.423v8.283a34.824 34.824 0 0 0 .553 6.859 12.488 12.488 0 0 0 1.878 4.568q3.446 5.107 11.069 5.1 7.121 0 10.626-3.7a9.817 9.817 0 0 0 2.538-6.347l-4.416-.5a7.1 7.1 0 0 1 -2.675 4.886m-38.039 5.133v-36.394h11.568v-3.946h-27.885v3.946h11.622v36.408zm-46.977 0v-18.452h17.306v18.466h4.688v-40.354h-4.694v17.942h-17.306v-17.942h-4.691v40.354zm-19.458-17.416v3.5a17.249 17.249 0 0 1 -.416 4.157 8.845 8.845 0 0 1 -1.436 3.018q-2.427 3.316-7.645 3.314t-7.481-3.394q-1.929-2.9-1.931-9.412v-7.813q0-5.933 1.519-8.749 2.176-4.088 7.783-4.087 4.579 0 6.954 2.706a7.42 7.42 0 0 1 1.656 3.894l4.306-.332a10.308 10.308 0 0 0 -1.958-5.825q-3.338-4.386-11.068-4.389-10.655 0-13.165 9.11a29.865 29.865 0 0 0 -.717 7.45v8.256a25.736 25.736 0 0 0 1.324 9.271 11.015 11.015 0 0 0 4.526 5.328 18.645 18.645 0 0 0 16.531 0 11.764 11.764 0 0 0 5.106-6.679 24.358 24.358 0 0 0 .749-6.789v-6.321h-13.034v3.782zm-34.394-22.938h-4.694v40.354h4.691zm-11.122 40.354v-3.946h-19.022v-36.394h-4.694v40.354zm-49.851 0v-18.12h15.87v-3.946h-15.87v-14.328h18.688v-3.946h-23.382v40.354z" fill="#fff" transform="translate(-75.463 -155.859)"/><path d="m114.73 240.315 95.6 27.346-85.846 58.207z" fill="#999" transform="translate(-114.73 -166.26)"/><path d="m134.663 329.032 145.192-98.449-49.766 83.5z" fill="#666" transform="translate(-110.226 -168.459)"/><path d="m117.178 246.01 66.1-66.1 105.264 47.908-69.712 47.267z" fill="#ccc" transform="translate(-114.177 -179.91)"/></svg>