<?xml version="1.0" encoding="utf-8"?>
<!-- Generator: Adobe Illustrator 26.4.1, SVG Export Plug-In . SVG Version: 6.00 Build 0)  -->
<svg version="1.1" id="Layer_1" xmlns="http://www.w3.org/2000/svg" xmlns:xlink="http://www.w3.org/1999/xlink" x="0px" y="0px"
	 viewBox="0 0 878.1 97.4" style="enable-background:new 0 0 878.1 97.4;" xml:space="preserve">
<style type="text/css">
	.st0{fill:#212529;}
	.st1{fill:#999999;}
	.st2{fill:#666666;}
	.st3{fill:#CCCCCC;}
</style>
<path class="st0" d="M878.1,95.7v-19h-38.5v-19h31.8v-19h-31.8V20.6h37.7v-19h-60.9v94.1H878.1z M741.2,90.7
	c6.9,4.5,16.1,6.7,27.5,6.7c11.9,0,20.9-2.6,27-7.7c5.3-4.5,7.9-11.7,7.9-21.6c0-10.3-3.1-17.5-9.4-21.6c-2.3-1.4-4.7-2.6-7.2-3.6
	c-2.4-0.9-6.6-2.1-12.6-3.6c-6.3-1.5-10.6-3.1-12.8-4.8c-2.2-1.7-3.5-4.4-3.3-7.2c0-5.7,3.4-8.6,10.2-8.6c3.1-0.1,6.1,0.6,8.9,2
	c2.9,1.7,5.3,4.1,7.1,6.9l17.2-11c-2.9-5.4-7.4-9.8-12.8-12.5C783.5,1.4,776.8,0,768.7,0c-10,0-17.9,2.3-23.7,6.8
	c-6.1,4.6-9.1,12-9.1,22.1c-0.1,4.5,0.7,8.9,2.4,13c1.8,4,4.8,7.3,8.6,9.5c2.5,1.6,5.2,2.9,8,3.9c2.9,1,8.5,2.5,16.8,4.6
	c3.4,0.8,5.8,1.9,7.3,3.4c1.5,1.6,2.3,3.8,2.2,6c0,6.2-4.1,9.3-12.2,9.3c-5.9,0-10.6-1.1-14-3.3c-2.4-1.7-4.4-3.9-5.8-6.5
	l-17.8,11.3C733.7,84.3,737,88,741.2,90.7 M673.9,60.5l9.6-31.8l9.5,31.8H673.9z M703.4,95.7h25.3L694.8,1.6H672l-33.9,94.1h25.3
	l5-16.6h30.1L703.4,95.7z M610.3,73.3c-1.8,3.4-5.4,5.2-10.9,5.1c-2.2,0.1-4.4-0.3-6.4-1.3c-1.7-1-3-2.4-3.7-4.2
	c-1.3-2.8-1.9-8-1.9-15.6V40.2c0-8.2,0.8-13.7,2.4-16.6s4.8-4.3,9.5-4.3c3.8,0,6.6,0.9,8.4,2.8c1.8,1.8,2.9,4.9,3.4,9.2l21.5-1.5
	c-0.3-6.7-1.6-12.2-3.9-16.3c-2.4-4.2-6.1-7.6-10.5-9.6c-4.7-2.3-11.1-3.4-19-3.4C590,0.5,583,1.9,578,4.8
	c-5.9,3.5-10.3,9.1-12.2,15.8c-1.3,4.1-1.9,10-1.9,17.8v20.9c0,9.3,1.1,16.4,3.2,21.4c2.2,5.2,6.1,9.5,11,12.2
	c4.9,2.9,11.9,4.4,21.2,4.4c9.4,0,16.9-1.5,22.5-4.6c5.5-3,9.5-8.1,11.2-14.1c0.9-3.1,1.3-6.3,1.4-9.6l-21.9-2.6
	C612.1,68.8,611.4,71.1,610.3,73.3 M550.9,95.7v-19h-38.5v-19h31.8v-19h-31.8V20.6h37.7v-19h-60.9v94.1L550.9,95.7z M418.4,95.7v-55
	l28.9,55h22.8V1.6h-22.7v55l-29-55h-22.7v94.1L418.4,95.7z M352.8,74.2c-1.8,2.9-5.2,4.3-10.4,4.3c-2.4,0.1-4.7-0.3-6.9-1.3
	c-1.8-0.9-3.2-2.4-4-4.1c-1.4-2.7-2.1-7.9-2.1-15.4V39.7c0-8.2,0.9-13.7,2.7-16.6c1.8-2.9,5.2-4.3,10.3-4.3c2.4-0.1,4.8,0.3,7,1.3
	c1.8,0.9,3.2,2.4,4,4.2c1.4,2.7,2.1,7.9,2.1,15.4v17.9C355.5,65.8,354.6,71.3,352.8,74.2 M309.2,80.8c2.3,5.2,6.3,9.4,11.2,12.2
	c5,2.9,12.3,4.4,22,4.4c9.7,0,17.1-1.5,22.1-4.4c6-3.5,10.5-9.1,12.5-15.8c1.3-4.2,2-10.1,2-17.7V37.8c0-9.2-1.1-16.3-3.2-21.3
	c-2.3-5.2-6.3-9.4-11.2-12.2c-5-2.9-12.3-4.4-22.1-4.4c-9.7,0-17,1.5-22,4.4c-6,3.5-10.5,9.1-12.5,15.8c-1.3,4.2-2,10.1-2,17.7v21.6
	C305.9,68.7,307,75.8,309.2,80.8 M271.2,95.7V20.6h24.2v-19h-72v19h24.3v75.1L271.2,95.7z M152.8,90.7c7,4.5,16.1,6.7,27.5,6.7
	c11.9,0,20.9-2.6,27-7.7c5.3-4.5,7.9-11.7,7.9-21.6c0-10.3-3.1-17.5-9.4-21.6c-2.3-1.4-4.7-2.6-7.2-3.6c-2.4-0.9-6.6-2.1-12.6-3.6
	c-6.3-1.5-10.6-3.1-12.8-4.8c-2.2-1.7-3.5-4.4-3.3-7.2c0-5.7,3.4-8.6,10.2-8.6c3.1-0.1,6.1,0.6,8.9,2c2.9,1.7,5.3,4.1,7.1,6.9
	l17.2-11c-2.9-5.4-7.4-9.8-12.8-12.5C195.2,1.4,188.4,0,180.3,0c-10,0-17.9,2.3-23.7,6.8c-6.1,4.6-9.1,12-9.1,22.1
	c-0.1,4.5,0.7,8.9,2.4,13c1.8,4,4.8,7.3,8.6,9.5c2.5,1.6,5.2,2.9,8,3.9c2.9,1,8.5,2.5,16.8,4.6c3.4,0.8,5.8,1.9,7.3,3.4
	c1.5,1.6,2.3,3.8,2.2,6c0,6.2-4.1,9.3-12.2,9.3c-5.9,0-10.6-1.1-14-3.3c-2.4-1.7-4.4-3.9-5.8-6.5l-17.8,11.3
	C145.3,84.3,148.7,88,152.8,90.7"/>
<g>
	<path class="st1" d="M0,45.2l57.7,16.5L5.9,96.8L0,45.2z"/>
	<path class="st2" d="M14.8,97.4L102.4,38l-30,50.4L14.8,97.4z"/>
	<path class="st3" d="M1.8,40.4L41.7,0.5l63.5,28.9L63.2,57.9L1.8,40.4z"/>
</g>
</svg>
